<svg xmlns="http://www.w3.org/2000/svg" width="100%" height="100%" viewBox="0 0 50 50">
  <defs>
    <linearGradient id="border-outer-fill" gradientUnits="userSpaceOnUse" x1="23.19" x2="23.2" y1="42.42" y2="44">
      <stop offset="0" stop-color="#adadad" />
      <stop offset="1" stop-color="#f0f0f0" />
    </linearGradient>
    <linearGradient id="border-inner-fill" gradientUnits="userSpaceOnUse" x1="23.35" x2="23.44" y1="42.76" y2="43.71">
      <stop offset="0" stop-color="#828282" />
      <stop offset="1" stop-color="#929292" stop-opacity="0.35" />
    </linearGradient>
    <linearGradient id="color-fill" gradientUnits="userSpaceOnUse" x1="23.21" x2="23.20" y1="42.75" y2="43.89">
      <stop offset="0" stop-color="#828282" />
      <stop offset="1" stop-color="#929292" />
    </linearGradient>
    <linearGradient id="gloss-fill" gradientUnits="userSpaceOnUse" x1="23.40" x2="23.39" y1="44.06" y2="42.88">
      <stop offset="0" stop-color="#fff" stop-opacity="0" />
      <stop offset="1" stop-color="#fff" stop-opacity="0.87" />
    </linearGradient>
  </defs>
  <g transform="matrix(31.25,0,0,31.25,-625.0232,-1325)">
    <path id="border-outer" d="M 24,43.2 C 24,43.6416 23.6416,44 23.2,44 C 22.7584,44 22.4,43.6416 22.4,43.2 C 22.4,42.7584 22.7584,42.4 23.2,42.4 C 23.6416,42.4 24,42.7584 24,43.2 z" fill="url(#border-outer-fill)" transform="translate(-2.3992,-1.0000e-6)" />
    <path id="border-inner" d="M 23.9063,43.2962 C 23.9063,43.6254 23.6391,43.8926 23.3099,43.8926 C 22.9807,43.8926 22.7135,43.6254 22.7135,43.2962 C 22.7135,42.9669 22.9807,42.6997 23.3099,42.6997 C 23.6391,42.6997 23.9063,42.9669 23.9063,43.2962 z" fill="url(#border-inner-fill)" transform="matrix(1.0824,0,0,1.0824,-4.4316,-3.6670)" />
    <path id="color" d="M 23.9063,43.2962 C 23.9063,43.6254 23.6391,43.8926 23.3099,43.8926 C 22.9807,43.8926 22.7135,43.6254 22.7135,43.2962 C 22.7135,42.9669 22.9807,42.6997 23.3099,42.6997 C 23.6391,42.6997 23.9063,42.9669 23.9063,43.2962 z" fill="url(#color-fill)" transform="matrix(0.9690,0,0,0.9690,-1.7882,1.2428)" />
    <path id="gloss" d="M 23.9063,43.2962 C 23.9063,43.6254 23.6391,43.8926 23.3099,43.8926 C 22.9807,43.8926 22.7135,43.6254 22.7135,43.2962 C 22.7135,42.9669 22.9807,42.6997 23.3099,42.6997 C 23.6391,42.6997 23.9063,42.9669 23.9063,43.2962 z" fill="url(#gloss-fill)" transform="matrix(0.7731,0,0,0.5979,2.7768,17.1187)" />
  </g>
  <script>
  <![CDATA[
    var gradients = {
      black: ['#000', '8c8c8c'],
      blue: ['#09f', '#09f'],
      green: ['#0a0', '#0f0'],
      grey: ['#828282', '#929292'],
      orange: ['#a60', '#fa0'],
      red: ['#a00', '#f00'],
      white: ['#adadad', '#f0f0f0'],
      yellow: ['#aa0', '#ff0']
    };
    var color = window.location.search.match(/color=([a-z]+)/)[1] || 'grey';
    var gradient = gradients[color] || gradients.grey;

    var stops = document.getElementById('color-fill').getElementsByTagName('stop');

    for (var i = 0, l = stops.length; i < l; ++i)
    {
      stops[i].setAttribute('stop-color', gradient[i]);
    }
  ]]>
  </script>
</svg>
