<?xml version="1.0" encoding="UTF-8" standalone="no"?>
<svg xmlns="http://www.w3.org/2000/svg" viewBox="0 0 552 711.9491" version="1.1">
  <path style="color:#000000;fill:#000000;stroke:none;stroke-width:8.01000023;marker:none;visibility:visible;display:inline;overflow:visible;enable-background:accumulate" d="m 268.4375,22.5 c -6.98903,0 -12.625,5.63597 -12.625,12.625 l 0,9 c -2.29402,-2.40046 -5.49586,-3.90625 -9.09375,-3.90625 l -94.65625,0 c -6.98903,0 -12.59375,5.63597 -12.59375,12.625 l 0,7.8125 c 0,6.98903 5.60472,12.625 12.59375,12.625 l 94.65625,0 c 3.59789,0 6.79973,-1.50579 9.09375,-3.90625 l 0,36.65625 c -11.19268,3.26054 -19.34375,13.53937 -19.34375,25.8125 l 0,40.375 -15.125,0 c -14.90994,0 -26.9375,11.99631 -26.9375,26.90625 l 0,23.5625 -85.1875,0 c -25.4932,0 -46.38152,19.02969 -49.28125,43.71875 l -0.34375,0 0,121.65625 -9.34375,0 c -15.37588,0 -27.75,12.37412 -27.75,27.75 0,15.37588 1.75,15.78125 1.75,15.78125 l 195.15625,0 c 0,0 1.75,-0.40537 1.75,-15.78125 0,-15.37588 -12.87332,-31.63615 -27.75,-27.75 l -7.65625,0 0,-66.15625 291.90625,0 0,67.28125 c 0,14.90994 11.99631,26.9375 26.90625,26.9375 1.04806,0 2.07757,-0.072 3.09375,-0.1875 l 0,0.1875 21.84375,0 0,-282.59375 -21.84375,0 0,0.1875 c -1.01712,-0.11568 -2.04469,-0.1875 -3.09375,-0.1875 -14.90994,0 -22.34552,12.71097 -26.90625,26.90625 l 0,62.25 -135.21875,0 0,-23.5625 c 0,-14.90994 -11.99631,-26.90625 -26.90625,-26.90625 l -15.15625,0 0,-40.375 c 0,-12.28359 -8.13631,-22.56121 -19.34375,-25.8125 l 0,-36.8125 c 2.30181,2.49391 5.60418,4.0625 9.28125,4.0625 l 94.625,0 c 6.98903,0 12.625,-5.63597 12.625,-12.625 l 0,-7.8125 c 0,-6.98903 -5.63597,-12.625 -12.625,-12.625 l -94.625,0 c -3.67707,0 -6.97944,1.56859 -9.28125,4.0625 l 0,-9.15625 c 0,-6.98903 -5.60472,-12.625 -12.59375,-12.625 z"/>
  <path style="color:#000000;fill:#0066ff;stroke:none;stroke-width:8.01000023;marker:none;visibility:visible;display:inline;overflow:visible;enable-background:accumulate" d="m 122.21875,456.3125 c -21.42778,94.72614 -73.96799,104.20115 -72.75,164.15625 1.01483,49.95487 37.33214,68.49026 68.96875,68.96875 34.94731,0.52856 67.64226,-16.96131 67.3125,-69.09375 -0.30515,-48.24244 -47.70706,-69.51406 -63.53125,-164.03125 z m -6.75,37.78125 c 0,0 -10.11736,39.86545 -14.875,45.8125 -4.75763,5.94704 -11.875,17.84375 -11.875,17.84375 l -4.78125,-2.96875 c 0,0 17.83898,-25.58135 20.8125,-33.3125 2.97353,-7.73116 10.71875,-27.375 10.71875,-27.375 z M 72.1875,569.5 80,571.375 c 0,0 -3.21919,8.34523 -4.4375,12.40625 -2.52312,8.41039 0,44.59375 0,44.59375 l -16,1.65625 c 0,0 -1.65625,-1.68193 -1.65625,-19.34375 0,-17.66182 14.28125,-41.1875 14.28125,-41.1875 z"/>
</svg>
